<svg xmlns="http://www.w3.org/2000/svg" width="1024" height="1024" viewBox="0 0 1024 1024">
  <rect width="1024" height="1024" fill="#fff"/>
  <g fill="#fff" stroke="#050505" stroke-width="18" stroke-linecap="round" stroke-linejoin="round">
    <circle cx="230" cy="242" r="76"/>
    <path d="M230 104v54M230 326v54M92 242h54M314 242h54M132 144l38 38M290 302l38 38M328 144l-38 38M170 302l-38 38"/>
    <path d="M512 214v426"/>
    <path d="M512 238 258 640h254z"/>
    <path d="M536 318v322h230z"/>
    <path d="M246 642h530l-78 128H324z"/>
    <path d="M124 824c78-50 156-50 234 0s156 50 234 0 156-50 234 0"/>
    <path d="M124 896c78-50 156-50 234 0s156 50 234 0 156-50 234 0"/>
  </g>
</svg>
