<svg xmlns="http://www.w3.org/2000/svg" width="1024" height="1024" viewBox="0 0 1024 1024">
  <rect width="1024" height="1024" fill="#fff"/>
  <g fill="#fff" stroke="#050505" stroke-width="18" stroke-linecap="round" stroke-linejoin="round">
    <path d="M332 640h360l-50 210H382z"/>
    <path d="M300 604h424v54H300z"/>
    <path d="M512 604V394"/>
    <circle cx="512" cy="310" r="46"/>
    <path d="M512 264c-38-76-108-88-148-44 36 56 86 74 148 44z"/>
    <path d="M512 264c38-76 108-88 148-44-36 56-86 74-148 44z"/>
    <path d="M466 310c-76-34-136-4-150 54 62 24 112 10 150-54z"/>
    <path d="M558 310c76-34 136-4 150 54-62 24-112 10-150-54z"/>
    <path d="M512 356c-16 74-72 112-140 98 20-68 68-100 140-98z"/>
    <path d="M512 356c16 74 72 112 140 98-20-68-68-100-140-98z"/>
    <path d="M512 520c-74-44-136-36-188 24 70 34 128 28 188-24z"/>
    <path d="M512 520c74-44 136-36 188 24-70 34-128 28-188-24z"/>
  </g>
</svg>
