<svg xmlns="http://www.w3.org/2000/svg" width="1024" height="1024" viewBox="0 0 1024 1024">
  <rect width="1024" height="1024" fill="#fff"/>
  <g fill="#fff" stroke="#050505" stroke-width="18" stroke-linecap="round" stroke-linejoin="round">
    <ellipse cx="512" cy="600" rx="366" ry="234"/>
    <path d="M250 594c80-112 238-112 318 0-80 112-238 112-318 0z"/>
    <path d="M568 594l122-78v156z"/>
    <circle cx="352" cy="574" r="13"/>
    <path d="M410 518c42 48 42 104 0 152"/>
    <path d="M346 704c-36 30-70 46-122 48 10-50 36-82 82-108z"/>
    <path d="M706 348c-50-62-132-62-182 0 50 54 132 54 182 0z"/>
    <path d="M744 414c58-40 118-34 164 18-52 42-112 40-164-18z"/>
    <path d="M284 424c-70-36-134-24-182 36 60 42 124 34 182-36z"/>
    <path d="M250 814c90-48 176-48 258 0s168 48 266 0"/>
  </g>
</svg>
