<svg xmlns="http://www.w3.org/2000/svg" width="1024" height="1024" viewBox="0 0 1024 1024">
  <rect width="1024" height="1024" fill="#fff"/>
  <g fill="#fff" stroke="#050505" stroke-width="18" stroke-linecap="round" stroke-linejoin="round">
    <ellipse cx="512" cy="704" rx="342" ry="112"/>
    <ellipse cx="512" cy="666" rx="260" ry="74"/>
    <circle cx="372" cy="530" r="74"/>
    <circle cx="512" cy="492" r="84"/>
    <circle cx="652" cy="530" r="74"/>
    <path d="M288 394h448v74H288z"/>
    <path d="M334 394c30-86 326-86 356 0"/>
    <path d="M390 468v70M512 468v90M634 468v70"/>
    <path d="M228 820h568"/>
    <path d="M300 820c28 50 80 70 150 64M724 820c-28 50-80 70-150 64"/>
  </g>
</svg>
