<svg xmlns="http://www.w3.org/2000/svg" width="1024" height="1024" viewBox="0 0 1024 1024">
  <rect width="1024" height="1024" fill="#fff"/>
  <g fill="#fff" stroke="#050505" stroke-width="18" stroke-linecap="round" stroke-linejoin="round">
    <path d="M512 134v86"/>
    <path d="M424 220h176"/>
    <path d="M330 348c0-88 72-160 182-160s182 72 182 160c0 142-82 234-182 234s-182-92-182-234z"/>
    <path d="M512 188c-60 84-72 258 0 394"/>
    <path d="M512 188c60 84 72 258 0 394"/>
    <path d="M360 328h304"/>
    <path d="M356 446h312"/>
    <path d="M426 582h172"/>
    <path d="M456 582v86h112v-86"/>
    <path d="M512 668v226"/>
    <path d="M448 736h128"/>
    <path d="M462 814h100"/>
    <path d="M402 694c-34 58-34 112 0 160M622 694c34 58 34 112 0 160"/>
  </g>
</svg>
