<svg xmlns="http://www.w3.org/2000/svg" width="1024" height="1024" viewBox="0 0 1024 1024">
  <rect width="1024" height="1024" fill="#fff"/>
  <g fill="#fff" stroke="#050505" stroke-width="18" stroke-linecap="round" stroke-linejoin="round">
    <path d="M320 306h384v484H320z"/>
    <path d="M360 306c0-80 64-146 152-146s152 66 152 146"/>
    <path d="M396 428h232M396 548h232M396 668h232"/>
    <path d="M226 826h572"/>
    <path d="M208 520l138-138"/>
    <path d="M180 548l88 88 52-52-88-88z"/>
    <path d="M816 520 678 382"/>
    <path d="M844 548l-88 88-52-52 88-88z"/>
    <path d="M254 760c-52-64-118-64-168 0 50 48 116 48 168 0z"/>
    <path d="M770 760c52-64 118-64 168 0-50 48-116 48-168 0z"/>
  </g>
</svg>
